<svg width="50" height="24" viewBox="0 0 50 24" fill="none" xmlns="http://www.w3.org/2000/svg">
<mask id="mask0_1_9551" style="mask-type:luminance" maskUnits="userSpaceOnUse" x="14" y="0" width="36" height="24">
<path fill-rule="evenodd" clip-rule="evenodd" d="M14.5287 0H49.9993V23.9998H14.5287V0Z" fill="white"/>
</mask>
<g mask="url(#mask0_1_9551)">
<path fill-rule="evenodd" clip-rule="evenodd" d="M20.724 21.4994C20.3474 20.9995 20.2635 20.2951 20.4856 19.518L20.5905 19.1501C21.2285 17.5711 22.9496 16.2941 24.5526 16.2941C25.2706 16.2941 25.8609 16.5532 26.2137 17.0215C26.5293 17.443 26.6323 18.0069 26.536 18.633L26.4244 19.0258C25.9295 20.7529 24.0672 22.2134 22.3565 22.2134C21.6499 22.2134 21.0702 21.9591 20.724 21.4994ZM37.3894 21.4994C37.0128 20.9995 36.9289 20.2951 37.151 19.518L37.2559 19.1501C37.8939 17.5701 39.615 16.2941 41.218 16.2941C41.937 16.2941 42.5263 16.5532 42.8791 17.0215C43.1957 17.444 43.2977 18.0098 43.1995 18.6378L43.0898 19.0258C42.594 20.7529 40.7317 22.2134 39.0219 22.2134C38.3153 22.2134 37.7356 21.9591 37.3894 21.4994ZM14.5287 14.8843C14.5287 17.3818 16.2709 19.4769 18.6005 20.0217C18.5356 20.9737 18.7721 21.8712 19.3004 22.5747C19.9907 23.4941 21.0769 23.9998 22.3565 23.9998C24.6584 23.9998 26.9737 22.3615 27.9082 20.1651H35.2525C35.2201 21.0636 35.4632 21.9056 35.9658 22.5747C36.6561 23.4941 37.7422 23.9998 39.0219 23.9998C41.3229 23.9998 43.6372 22.3615 44.5726 20.1651H46.9908C48.2524 20.1651 49.3337 19.3049 49.6217 18.0729C49.8715 16.9957 49.9993 15.8889 49.9993 14.783V11.2131C49.9993 10.2564 49.5397 9.43249 48.7378 8.95364C47.8881 8.44707 46.9174 7.96917 46.1364 7.5859C45.858 7.45017 45.6005 7.32305 45.3784 7.20931C45.2172 7.12712 45.078 7.01529 44.9655 6.8767L40.6706 1.61314C39.8372 0.591393 38.6043 0.00357904 37.2874 -0.000244141H18.9752V1.78614H37.2855C38.0655 1.78805 38.7969 2.13691 39.2908 2.74384L43.5847 8.00836C43.8565 8.34097 44.1874 8.60764 44.5707 8.80167C44.8005 8.91923 45.0656 9.05017 45.3526 9.19068C46.1031 9.56057 47.0385 10.0193 47.8252 10.4896C48.0884 10.6464 48.2171 10.8834 48.2171 11.2131V14.783C48.2171 15.7532 48.1056 16.7223 47.8853 17.6667C47.789 18.0843 47.4209 18.3787 46.9908 18.3787H44.093C44.1731 16.6917 43.024 15.4358 41.218 15.4358C39.4129 15.4358 37.5506 16.6937 36.6647 18.3787H27.4285C27.5077 16.6917 26.3586 15.4358 24.5526 15.4358C22.7484 15.4358 20.8852 16.6937 19.9993 18.3787H19.7981C17.8748 18.3787 16.3119 16.8103 16.3119 14.8843H14.5287ZM38.4641 3.77802C38.0264 3.23417 37.3732 2.92258 36.6752 2.92258H27.8033V3.63752H36.6752C37.1568 3.63752 37.6078 3.85162 37.9101 4.2282L40.623 7.54194C40.7546 7.70538 40.7793 7.91566 40.6897 8.1049C40.5991 8.29319 40.4208 8.40693 40.212 8.40693H30.8699V9.12187H40.212C40.6954 9.12187 41.1255 8.85042 41.3334 8.41171C41.5412 7.97587 41.4821 7.4693 41.1779 7.09272L38.4641 3.77802Z" fill="#404041"/>
</g>
<path fill-rule="evenodd" clip-rule="evenodd" d="M8.23046 5.66493H16.2375V3.80591H4.44959V4.52084H8.23046V5.66493Z" fill="#404041"/>
<path fill-rule="evenodd" clip-rule="evenodd" d="M16.2379 13.3202V11.4832H4.44904V12.1971H8.23087V13.3202H16.2379Z" fill="#404041"/>
<path fill-rule="evenodd" clip-rule="evenodd" d="M4.44932 9.44191H16.2382V7.58289H0V8.29782H4.44932V9.44191Z" fill="#404041"/>
<mask id="mask1_1_9551" style="mask-type:luminance" maskUnits="userSpaceOnUse" x="8" y="0" width="11" height="2">
<path fill-rule="evenodd" clip-rule="evenodd" d="M8.23058 0H18.9753V1.786H8.23058V0Z" fill="white"/>
</mask>
<g mask="url(#mask1_1_9551)">
<path fill-rule="evenodd" clip-rule="evenodd" d="M18.9753 -0.000366211H13.95V0.0130149H8.23058V0.727949H13.95V1.78601H18.9753V-0.000366211Z" fill="#404041"/>
</g>
<mask id="mask2_1_9551" style="mask-type:luminance" maskUnits="userSpaceOnUse" x="0" y="0" width="50" height="24">
<path fill-rule="evenodd" clip-rule="evenodd" d="M0 24H50V0H0V24Z" fill="white"/>
</mask>
<g mask="url(#mask2_1_9551)">
<path fill-rule="evenodd" clip-rule="evenodd" d="M20.3757 9.12215H26.5595V2.92383H20.3757V9.12215Z" fill="#FFCD00"/>
</g>
</svg>
