<svg width="38" height="32" viewBox="0 0 38 32" fill="none" xmlns="http://www.w3.org/2000/svg">
<path fill-rule="evenodd" clip-rule="evenodd" d="M36.5248 4.03266L1.47481 4.02385V1.4682L36.5248 1.47701V4.03266Z" stroke="#404041" stroke-width="0.75"/>
<path fill-rule="evenodd" clip-rule="evenodd" d="M36.5248 30.532L1.47481 30.5232V28.5274L36.5248 28.5352V30.532Z" stroke="#404041" stroke-width="0.75"/>
<path fill-rule="evenodd" clip-rule="evenodd" d="M35.9136 28.5358L2.21565 28.527V4.02466L35.9136 4.03249V28.5358Z" stroke="#404041" stroke-width="0.75"/>
<path d="M7.8304 3.91522V28.4186" stroke="#404041" stroke-width="0.75"/>
<path d="M14.7137 3.91522V28.4186" stroke="#404041" stroke-width="0.75"/>
<path d="M21.5971 3.91522V28.4186" stroke="#404041" stroke-width="0.75"/>
<path d="M28.4804 3.91522V28.4186" stroke="#404041" stroke-width="0.75"/>
<path d="M1.96667 10.0773L35.6646 10.0861" stroke="#404041" stroke-width="0.75"/>
<path d="M1.96667 13.5031L35.6646 13.5119" stroke="#404041" stroke-width="0.75"/>
<path d="M1.96667 16.9294L35.6646 16.9372" stroke="#404041" stroke-width="0.75"/>
<path d="M1.96667 20.3591H36.3834" stroke="#404041" stroke-width="0.75"/>
<path fill-rule="evenodd" clip-rule="evenodd" d="M0 0V1.4682V4.02386V5.49304H0.740451V27.059H0V28.5272V30.523V31.9912H1.47402L36.524 32H38V27.0668H37.3884V5.50087H38V0.00880922H36.525L1.475 0H0ZM1.47402 1.4682L36.525 1.47603V4.03267H35.9134V28.536H36.525V30.5318L1.47402 30.523V28.5272H2.21644V4.02386H1.47402V1.4682Z" fill="#404041"/>
<path fill-rule="evenodd" clip-rule="evenodd" d="M13.7667 19.5761H22.6167V10.7668H13.7667V19.5761Z" fill="white"/>
<path fill-rule="evenodd" clip-rule="evenodd" d="M14.75 18.5972H21.6334V11.7456H14.75V18.5972Z" fill="#FFCD00"/>
</svg>
